<svg viewBox="0 0 641 133" xmlns="http://www.w3.org/2000/svg" width="200" height="41"><path d="M189.501 34.0361C194.501 34.0361 199.001 35.0361 202.901 36.9361C206.801 38.8361 209.801 41.5361 212.001 45.0361C214.101 48.6361 215.201 52.7361 215.201 57.3361C215.201 61.8361 214.101 65.8361 212.001 69.2361C209.801 72.6361 206.901 75.2361 203.201 77.0361L217.001 104.036H200.401L188.701 80.5361H176.001V104.036H161.001V34.0361H189.501ZM176.001 68.0361H188.301C191.801 68.0361 194.601 67.1361 196.701 65.1361C198.801 63.2361 199.901 60.6361 199.901 57.3361C199.901 54.0361 198.801 51.4361 196.701 49.4361C194.601 47.5361 191.801 46.5361 188.301 46.5361H176.001V68.0361Z" fill="currentColor"></path><path d="M222.715 64.5361C224.915 60.5361 227.915 57.5361 231.815 55.3361C235.715 53.1361 240.215 52.0361 245.415 52.0361C250.615 52.0361 255.115 53.1361 259.115 55.1361C263.115 57.1361 266.215 60.0361 268.415 63.7361C270.615 67.4361 271.815 71.7361 271.915 76.7361C271.915 78.5361 271.715 80.1361 271.515 81.5361H234.215V81.9361C234.515 85.7361 235.715 88.6361 237.815 90.7361C239.815 92.9361 242.715 93.9361 246.315 93.9361C249.115 93.9361 251.515 93.3361 253.415 92.1361C255.315 90.9361 256.615 89.0361 257.215 86.6361H271.115C270.515 90.0361 269.215 93.1361 267.215 95.8361C265.115 98.6361 262.415 100.736 259.015 102.336C255.615 103.936 251.715 104.636 247.315 104.636C241.515 104.636 236.615 103.636 232.415 101.436C228.215 99.3361 225.015 96.3361 222.815 92.3361C220.615 88.3361 219.515 83.7361 219.515 78.4361C219.515 73.1361 220.515 68.5361 222.715 64.5361ZM257.815 72.3361C257.315 69.2361 256.015 66.8361 253.915 65.1361C251.815 63.4361 249.215 62.5361 246.015 62.5361C242.915 62.5361 240.315 63.4361 238.215 65.2361C236.115 67.0361 234.915 69.3361 234.515 72.3361H257.815Z" fill="currentColor"></path><path d="M272.367 52.6361H287.467L299.867 89.6361L312.067 52.6361H326.867L308.367 104.036H290.867L272.367 52.6361Z" fill="currentColor"></path><path d="M330.513 64.5361C332.713 60.5361 335.713 57.5361 339.613 55.3361C343.513 53.1361 348.013 52.0361 353.213 52.0361C358.413 52.0361 362.913 53.1361 366.913 55.1361C370.913 57.1361 374.013 60.0361 376.213 63.7361C378.413 67.4361 379.613 71.7361 379.713 76.7361C379.713 78.5361 379.513 80.1361 379.313 81.5361H342.013V81.9361C342.313 85.7361 343.513 88.6361 345.613 90.7361C347.613 92.9361 350.513 93.9361 354.113 93.9361C356.913 93.9361 359.313 93.3361 361.213 92.1361C363.113 90.9361 364.413 89.0361 365.013 86.6361H378.913C378.313 90.0361 377.013 93.1361 375.013 95.8361C372.913 98.6361 370.213 100.736 366.813 102.336C363.413 103.936 359.513 104.636 355.113 104.636C349.313 104.636 344.413 103.636 340.213 101.436C336.013 99.3361 332.813 96.3361 330.613 92.3361C328.413 88.3361 327.313 83.7361 327.313 78.4361C327.313 73.1361 328.313 68.5361 330.513 64.5361ZM365.613 72.3361C365.113 69.2361 363.813 66.8361 361.713 65.1361C359.613 63.4361 357.013 62.5361 353.813 62.5361C350.713 62.5361 348.113 63.4361 346.013 65.2361C343.913 67.0361 342.713 69.3361 342.313 72.3361H365.613Z" fill="currentColor"></path><path d="M418.419 52.6361V65.4361H412.819C408.819 65.4361 405.819 66.6361 404.019 69.0361C402.119 71.4361 401.219 74.7361 401.219 78.8361V104.036H387.119V52.6361H399.919L401.219 60.3361C402.719 57.8361 404.619 55.9361 406.919 54.6361C409.119 53.3361 412.219 52.6361 416.019 52.6361H418.419Z" fill="currentColor"></path><path d="M434.94 86.9361C435.14 89.2361 436.24 91.0361 438.24 92.4361C440.24 93.8361 442.74 94.5361 445.94 94.5361C448.94 94.5361 451.24 94.1361 453.04 93.1361C454.74 92.1361 455.64 90.7361 455.64 88.9361C455.64 87.6361 455.24 86.6361 454.44 85.9361C453.64 85.3361 452.44 84.8361 451.04 84.5361C449.54 84.2361 447.14 83.8361 443.84 83.4361C439.24 82.8361 435.54 82.1361 432.54 81.1361C429.54 80.2361 427.14 78.7361 425.34 76.7361C423.54 74.7361 422.64 72.1361 422.64 68.7361C422.64 65.4361 423.54 62.5361 425.34 59.9361C427.14 57.3361 429.74 55.3361 433.14 53.9361C436.44 52.5361 440.24 51.8361 444.64 51.8361C451.64 51.9361 457.24 53.4361 461.54 56.3361C465.84 59.3361 468.14 63.3361 468.54 68.5361H455.14C454.94 66.6361 453.84 65.0361 452.04 63.8361C450.24 62.6361 447.84 61.9361 445.04 61.9361C442.34 61.9361 440.14 62.4361 438.54 63.4361C436.94 64.4361 436.14 65.8361 436.14 67.4361C436.14 68.6361 436.54 69.5361 437.44 70.1361C438.24 70.7361 439.44 71.2361 440.84 71.4361C442.24 71.7361 444.54 72.0361 447.84 72.3361C454.74 73.1361 460.04 74.6361 463.74 76.8361C467.44 79.0361 469.34 82.7361 469.34 87.9361C469.34 91.3361 468.34 94.2361 466.34 96.7361C464.34 99.3361 461.64 101.236 458.14 102.636C454.64 104.036 450.64 104.636 446.04 104.636C438.84 104.636 433.04 103.136 428.64 99.9361C424.14 96.7361 421.74 92.4361 421.54 86.9361H434.94Z" fill="currentColor"></path><path d="M478.344 64.5361C480.544 60.5361 483.544 57.5361 487.444 55.3361C491.344 53.1361 495.844 52.0361 501.044 52.0361C506.244 52.0361 510.744 53.1361 514.744 55.1361C518.744 57.1361 521.844 60.0361 524.044 63.7361C526.244 67.4361 527.444 71.7361 527.544 76.7361C527.544 78.5361 527.344 80.1361 527.144 81.5361H489.844V81.9361C490.144 85.7361 491.344 88.6361 493.444 90.7361C495.444 92.9361 498.344 93.9361 501.944 93.9361C504.744 93.9361 507.144 93.3361 509.044 92.1361C510.944 90.9361 512.244 89.0361 512.844 86.6361H526.744C526.144 90.0361 524.844 93.1361 522.844 95.8361C520.744 98.6361 518.044 100.736 514.644 102.336C511.244 103.936 507.344 104.636 502.944 104.636C497.144 104.636 492.244 103.636 488.044 101.436C483.844 99.3361 480.644 96.3361 478.444 92.3361C476.244 88.3361 475.144 83.7361 475.144 78.4361C475.144 73.1361 476.144 68.5361 478.344 64.5361ZM513.444 72.3361C512.944 69.2361 511.644 66.8361 509.544 65.1361C507.444 63.4361 504.844 62.5361 501.644 62.5361C498.544 62.5361 495.944 63.4361 493.844 65.2361C491.744 67.0361 490.544 69.3361 490.144 72.3361H513.444Z" fill="currentColor"></path><path d="M586.349 34.0361V104.036H574.049L572.649 96.9361C568.649 102.136 563.349 104.636 556.649 104.636C552.049 104.636 548.049 103.636 544.449 101.436C540.849 99.2361 537.949 96.1361 535.949 92.1361C533.949 88.1361 532.949 83.5361 532.949 78.2361C532.949 73.0361 533.949 68.5361 535.949 64.5361C537.949 60.5361 540.849 57.5361 544.449 55.3361C548.049 53.1361 552.149 52.0361 556.749 52.0361C563.349 52.0361 568.549 54.4361 572.249 59.0361V34.0361H586.349ZM569.049 89.1361C571.249 86.4361 572.449 82.8361 572.449 78.4361C572.449 74.0361 571.249 70.4361 569.049 67.6361C566.749 64.9361 563.749 63.5361 559.949 63.5361C556.149 63.5361 553.049 64.9361 550.749 67.6361C548.449 70.4361 547.349 73.9361 547.349 78.3361C547.349 82.7361 548.449 86.3361 550.749 89.0361C553.049 91.8361 556.149 93.1361 559.949 93.1361C563.749 93.1361 566.749 91.8361 569.049 89.1361Z" fill="currentColor"></path><path fill-rule="evenodd" clip-rule="evenodd" d="M8.0643 60.1303C10.411 33.0434 15.3714 18.2741 15.3714 18.2741C16.9124 12.6677 22.8078 7.60275 28.5471 7.09491C28.5471 7.09491 44.1585 4.64148 71.7671 7.07978C99.3774 9.51975 114.334 14.6755 114.334 14.6755C119.884 16.241 125.027 22.1787 125.65 27.9667C125.65 27.9667 128.411 41.6396 125.907 70.5426C123.404 99.4473 118.004 114.671 118.004 114.671C116.392 120.257 110.455 125.366 104.71 125.91C104.71 125.91 91.3199 128.434 61.4837 125.799C31.6475 123.163 18.8899 118.326 18.8899 118.326C13.3554 116.71 8.42353 110.707 7.98373 104.899C7.98373 104.899 5.71756 87.2172 8.0643 60.1303ZM51.1233 101.38H37.2561C34.7499 101.38 33.8115 99.6458 35.1527 97.517L47.2591 78.3032C39.1479 74.2069 34.6978 66.5153 34.6978 55.8272C34.6978 40.2423 45.181 31.4527 63.4798 31.4527H91.2547C92.7554 31.4527 94.021 32.6819 94.0748 34.1987C94.0748 34.1987 94.58 45.4939 94.58 68.1667C94.58 90.8394 94.0983 98.6352 94.0983 98.6352C94.0294 100.15 92.7554 101.38 91.2479 101.38H79.5596C78.0538 101.38 76.8334 100.149 76.8334 98.6335V84.446C76.8334 82.9293 75.6164 81.7 74.114 81.7H64.351C63.5973 81.7 62.716 82.2516 62.3854 82.9309L54.3984 99.3196C53.8444 100.458 52.384 101.38 51.1233 101.38ZM75.4815 67.7144C76.2318 67.7144 76.8412 67.0955 76.8412 66.3371V46.814C76.8412 46.0539 76.2335 45.4368 75.4815 45.4368H63.4876C55.8716 45.4368 51.4215 49.1329 51.4215 56.4259C51.4215 63.8181 55.8716 67.7144 63.4876 67.7144H75.4815Z" fill="currentColor"></path><path fill-rule="evenodd" clip-rule="evenodd" d="M607.19 29.0313C607.19 29.0313 606.753 25.6288 607.205 20.4164C607.658 15.204 608.614 12.3619 608.614 12.3619C608.911 11.2831 610.047 10.3084 611.154 10.2107C611.154 10.2107 614.163 9.73858 619.485 10.2078C624.807 10.6773 627.691 11.6694 627.691 11.6694C628.76 11.9707 629.752 13.1133 629.872 14.2271C629.872 14.2271 630.404 16.8582 629.921 22.4201C629.439 27.9823 628.398 30.9117 628.398 30.9117C628.087 31.9867 626.943 32.9697 625.836 33.0746C625.836 33.0746 623.254 33.5603 617.503 33.0532C611.751 32.5458 609.292 31.6152 609.292 31.6152C608.225 31.3042 607.274 30.149 607.19 29.0313ZM608.57 33.7914C607.543 33.4712 606.695 32.8075 606.097 32.0754C605.495 31.3376 605.007 30.3597 604.909 29.265L604.909 29.2603C604.905 29.2262 604.899 29.179 604.893 29.1192C604.88 28.9995 604.863 28.8293 604.845 28.6115C604.808 28.176 604.765 27.5501 604.737 26.7588C604.682 25.1771 604.686 22.9295 604.922 20.2182C605.157 17.5092 605.524 15.3993 605.839 13.9484C605.997 13.223 606.141 12.6622 606.249 12.2736C606.303 12.0792 606.348 11.9279 606.381 11.8205C606.397 11.7672 606.411 11.7247 606.421 11.6931C606.722 10.6555 607.37 9.78902 608.096 9.17227C608.817 8.55917 609.782 8.05062 610.875 7.93504C610.907 7.93049 610.949 7.92482 610.999 7.91828C611.113 7.9036 611.272 7.88454 611.476 7.86389C611.885 7.82259 612.472 7.77494 613.228 7.7433C614.738 7.68003 616.921 7.68081 619.686 7.92465C622.452 8.16865 624.602 8.55 626.079 8.87683C626.817 9.04024 627.388 9.19003 627.783 9.30222C627.981 9.35832 628.134 9.40503 628.244 9.43935C628.298 9.45641 628.341 9.47041 628.373 9.48099C629.402 9.78616 630.262 10.4344 630.877 11.1516C631.485 11.8608 631.999 12.8075 632.139 13.8811C632.144 13.909 632.149 13.9417 632.156 13.9792C632.174 14.0897 632.197 14.2419 632.221 14.4364C632.271 14.8254 632.327 15.3834 632.366 16.1149C632.445 17.5781 632.455 19.7337 632.205 22.6183M632.205 22.6183C631.954 25.5064 631.557 27.7308 631.215 29.2538C631.044 30.0153 630.887 30.6013 630.769 31.007C630.71 31.2099 630.661 31.3678 630.625 31.48C630.607 31.5351 630.592 31.5792 630.581 31.6122C630.269 32.6354 629.62 33.4922 628.899 34.1045C628.186 34.7095 627.232 35.219 626.151 35.3458C626.124 35.3503 626.091 35.3554 626.054 35.361C625.944 35.3775 625.794 35.3981 625.6 35.42C625.214 35.4638 624.658 35.5127 623.923 35.544C622.454 35.6065 620.271 35.5982 617.301 35.3364C614.332 35.0744 612.18 34.7003 610.744 34.3815C610.026 34.222 609.487 34.0765 609.114 33.9657C608.927 33.9103 608.782 33.8636 608.677 33.8282C608.635 33.8141 608.6 33.8018 608.57 33.7914" fill="currentColor"></path><path fill-rule="evenodd" clip-rule="evenodd" d="M615.504 28.5499H612.831C612.348 28.5499 612.167 28.2163 612.425 27.8066L614.759 24.1093C613.195 23.321 612.338 21.8409 612.338 19.7842C612.338 16.7852 614.358 15.0938 617.886 15.0938H623.24C623.529 15.0938 623.773 15.3303 623.784 15.6222C623.784 15.6222 623.881 17.7957 623.881 22.1587C623.881 26.5216 623.788 28.0218 623.788 28.0218C623.775 28.3134 623.529 28.5499 623.239 28.5499H620.985C620.695 28.5499 620.46 28.313 620.46 28.0215V25.2914C620.46 24.9995 620.225 24.7629 619.936 24.7629H618.054C617.908 24.7629 617.739 24.8691 617.675 24.9998L616.135 28.1535C616.028 28.3726 615.747 28.5499 615.504 28.5499ZM620.199 22.0716C620.344 22.0716 620.461 21.9526 620.461 21.8066V18.0498C620.461 17.9035 620.344 17.7847 620.199 17.7847H617.887C616.419 17.7847 615.561 18.496 615.561 19.8994C615.561 21.3219 616.419 22.0716 617.887 22.0716H620.199Z" fill="currentColor"></path></svg>